<svg xmlns="http://www.w3.org/2000/svg" version="1.1" xmlns:xlink="http://www.w3.org/1999/xlink" xmlns:svgjs="http://svgjs.dev/svgjs" width="100%" height="100%" viewBox="0 0 1000 600"><rect width="1000" height="600" x="0" y="0" fill="#A020F0&#9;"/><g><circle r="166.66666666666666" cx="326.6920420328776" cy="348.91430723482966" fill="&#9;#4B0082" transform="matrix(0.7811257401241882,0,0,0.7811257401241882,0,27.454035714297092)"/><path d="M278.7172585585591 398.55129776398155L205.66605510320426 366.138229459546L205.66605510320426 364.90590237104846L278.91786994505867 332.29222268011324L279.9495856470566 334.3556540841091L209.39169513819687 365.53639530004716L279.9495856470566 396.4878663599857L278.7172585585591 398.55129776398155ZM299.5521839850177 423.91430877143114L297.08752980802257 422.88259306943314L353.201400488911 274.31553198172844L356.2965475949049 273.91430920872926L299.5521839850177 423.91430877143114ZM374.4662074578688 332.29222268011324L447.71802229972315 364.90590237104846L447.71802229972315 366.138229459546L374.6668188443684 398.55129776398155L373.43449175587085 396.4878663599857L443.9923822647307 365.53639530004716L373.43449175587085 334.3556540841091L374.4662074578688 332.29222268011324Z " fill="#5f9ea0" transform="matrix(0.7811257401241882,0,0,0.7811257401241882,0,27.454035714297092)"/><path d="M631.939513045008 402.11328172911817L631.939513045008 402.11328172911817L631.939513045008 307.1621204598174L626.4023506592721 306.8144959154214Q625.6822712458804 306.8144959154214 624.9621918324888 306.8144959154214L624.9621918324888 306.8144959154214Q616.3708995209882 306.8144959154214 610.3123003186583 310.9363297989737Q604.2288707917288 315.03333335792627 604.2288707917288 323.4508133972288L604.2288707917288 323.4508133972288Q604.2288707917288 326.8277375427897 605.2965747495165 329.3356003273607L605.2965747495165 329.3356003273607L603.8564159227332 330.40330428514835Q601.8948202793558 328.267896369573 601.8948202793558 323.003867554434Q601.8948202793558 317.71500841469526 605.6441992939124 312.8979254423509Q609.4184086330687 308.05601214540707 615.3031955632006 306.4668713710255L615.3031955632006 306.4668713710255Q615.4770078353986 306.4668713710255 619.4250294467529 305.9206042298317L619.4250294467529 305.9206042298317L619.4250294467529 305.5729796854358L615.3031955632006 305.74679195763383Q598.1454412647992 303.58655371745874 587.4187410377234 295.98847438994676Q576.6920408106475 288.39039506243466 576.6920408106475 274.08812809300025L576.6920408106475 274.08812809300025L578.8274487262228 273.91431582080224Q578.8274487262228 282.1331532633071 582.9492826097752 288.1420918164375Q587.0711164933274 294.1262000449683 594.2222499780446 297.52795451512895L594.2222499780446 297.52795451512895Q607.4319826650917 303.58655371745874 626.4023506592721 304.67908799984616L626.4023506592721 304.67908799984616L634.447375829579 305.20052481644007L634.447375829579 402.11328172911817Q634.447375829579 412.83998195619404 630.4993542182247 418.10401077133304Q626.5761629314701 423.36803958647215 617.0909789343799 423.36803958647215L617.0909789343799 423.36803958647215Q612.2738959620357 423.36803958647215 609.045953764073 422.3003356286845L609.045953764073 422.3003356286845L609.4184086330687 420.51255225750515Q613.3415999198234 421.4064439430948 616.569542117786 421.4064439430948L616.569542117786 421.4064439430948Q625.5084589736824 421.4064439430948 628.7115708470454 416.7631732429486Q631.939513045008 412.1199025428024 631.939513045008 402.11328172911817ZM641.5985093142962 313.07173771454893L641.5985093142962 313.07173771454893L641.5985093142962 413.7338736417837Q656.5960253725226 421.4064439430948 669.0360179969786 421.4064439430948Q681.4511802968349 421.4064439430948 686.367584567578 417.48325265634026Q691.283988838321 413.53523104498595 691.283988838321 403.52861023130185L691.283988838321 403.52861023130185Q691.283988838321 400.32549835793884 690.3900971527314 397.64382330116996L690.3900971527314 397.64382330116996L692.3516927961086 396.7499316155803Q693.618039350694 399.7792312167452 693.618039350694 403.52861023130185L693.618039350694 403.52861023130185Q693.618039350694 414.2553104583776 688.0808769649581 418.8985811585238Q682.5188842546224 423.5666821832698 671.0969349387547 423.5666821832698L671.0969349387547 423.5666821832698Q654.4606174569473 423.5666821832698 639.0906465297252 415.1492021439673L639.0906465297252 415.1492021439673L639.0906465297252 313.07173771454893Q639.0906465297252 302.3450374874732 643.0138378164798 297.08100867233406Q646.9618594278342 291.7921495325953 656.4222131003246 291.7921495325953L656.4222131003246 291.7921495325953Q661.2641263972686 291.7921495325953 664.4672382706315 292.859853490383L664.4672382706315 292.859853490383L664.1196137262355 294.64763686156226Q660.1715921148812 293.7537451759726 656.9684802415183 293.7537451759726L656.9684802415183 293.7537451759726Q648.0295633856217 293.7537451759726 644.8016211876592 298.42184620071856Q641.5985093142962 303.06511690086484 641.5985093142962 313.07173771454893ZM752.962515144007 346.4933546257621L752.962515144007 346.4933546257621L752.962515144007 397.64382330116996Q752.962515144007 421.4064439430948 768.3324860712291 421.4064439430948L768.3324860712291 421.4064439430948Q773.0005870959751 421.4064439430948 775.3098072837483 419.99111544091124L775.3098072837483 419.99111544091124L776.377511241536 421.2326316708968Q773.695836184767 423.36803958647215 767.8110492546351 423.36803958647215L767.8110492546351 423.36803958647215Q750.6532949562337 423.36803958647215 750.6532949562337 397.64382330116996L750.6532949562337 397.64382330116996L750.6532949562337 393.69580168981565Q744.5698654293042 403.9010651002975 734.6377355894192 412.1199025428024Q724.7304360741339 420.33873998530726 715.9653314904353 423.9143067276658L715.9653314904353 423.9143067276658Q706.4801474933452 418.8985811585238 701.8368767931988 408.5443358004437Q697.1936060930526 398.16526011776386 697.1936060930526 384.4092602895231Q697.1936060930526 370.6284301366827 703.5253388659793 356.87243030844195Q709.8819019635057 343.1164304802012 721.6763061483692 334.52513816870066L721.6763061483692 334.52513816870066Q737.592544216785 334.52513816870066 750.8271072284317 342.02389619781377L750.8271072284317 342.02389619781377Q751.7209989140214 333.08497934191735 756.7118941585636 326.8277375427897L756.7118941585636 326.8277375427897L758.3258652575448 327.72162922837936Q752.962515144007 336.3129215398799 752.962515144007 346.4933546257621ZM722.2225732895629 336.4867338120779Q711.322060790289 345.0780261235784 705.5117648339562 358.1139465384275Q699.7014688776236 371.17469727787636 699.7014688776236 384.13612671892633Q699.7014688776236 397.0975561599763 703.7984724365762 407.0296859998613Q707.9203063201285 416.9369855151466 716.3129560348312 421.4064439430948L716.3129560348312 421.4064439430948Q724.5317934773361 418.2033320697319 735.0101904584149 409.1650939154365Q745.4637571148938 400.1268557611412 750.6532949562337 390.120234947457L750.6532949562337 390.120234947457L750.6532949562337 344.18413443798886Q737.418731944587 336.4867338120779 722.2225732895629 336.4867338120779L722.2225732895629 336.4867338120779ZM808.9300667917591 369.38691390669703L808.9300667917591 409.2644152138354Q808.9300667917591 421.4064439430948 824.3000377189812 421.4064439430948L824.3000377189812 421.4064439430948Q827.5279799169439 421.4064439430948 831.4511712036983 420.51255225750515L831.4511712036983 420.51255225750515L831.7987957480943 422.1265233564865Q828.5956838747314 423.36803958647215 823.2323337611936 423.36803958647215Q817.8689836476556 423.36803958647215 813.2257129475095 421.0588193986989Q808.5576119227634 418.72476888632593 807.6637202371737 414.0814981861796L807.6637202371737 414.0814981861796Q806.7698285515842 418.72476888632593 802.2258791498367 421.0588193986989Q797.6570994234896 423.36803958647215 792.2937493099516 423.36803958647215Q786.9303991964139 423.36803958647215 783.7272873230509 422.1265233564865L783.7272873230509 422.1265233564865L784.0749118674469 420.51255225750515Q787.9981031542014 421.4064439430948 791.2260453521641 421.4064439430948L791.2260453521641 421.4064439430948Q806.5960162793862 421.4064439430948 806.5960162793862 409.2644152138354L806.5960162793862 409.2644152138354L806.5960162793862 360.7956215951965Q806.5960162793862 337.03300095327165 791.2260453521641 337.03300095327165L791.2260453521641 337.03300095327165Q786.5827746520179 337.03300095327165 784.2487241396449 338.4483294554552L784.2487241396449 338.4483294554552L783.1810201818572 337.20681322546955Q785.8626952386261 335.0714053098943 791.7723124933577 335.0714053098943L791.7723124933577 335.0714053098943Q808.9300667917591 335.0714053098943 808.9300667917591 360.7956215951965L808.9300667917591 360.7956215951965L808.9300667917591 365.0912677509468Q818.7628753332453 341.8500839256159 837.3607884584301 334.52513816870066L837.3607884584301 334.52513816870066Q843.7918425297555 341.8500839256159 843.7918425297555 356.52480576404594L843.7918425297555 356.52480576404594Q843.7918425297555 357.4186974496356 843.7918425297555 358.1139465384275L843.7918425297555 358.1139465384275L841.4577920173826 358.1139465384275Q841.4577920173826 357.22005485283785 841.4577920173826 356.3261631672483L841.4577920173826 356.3261631672483Q841.4577920173826 343.6378672967951 836.4668967728403 337.03300095327165L836.4668967728403 337.03300095327165Q826.8079005035522 341.50245938121986 820.8237922750214 349.27435098092985Q814.8148537218909 357.04624258063996 808.9300667917591 369.38691390669703L808.9300667917591 369.38691390669703ZM865.0714307117091 402.11328172911817L865.0714307117091 402.11328172911817L865.0714307117091 337.20681322546955L867.3806508994825 337.20681322546955L867.3806508994825 401.5670145879245Q867.3806508994825 407.47663184265605 867.6537844700792 410.4066101454222Q867.9269180406761 413.36141877278794 869.2677555690607 416.4900396723517Q870.6085930974451 419.6186605719155 873.3647591280132 420.78568582810203Q876.145755483181 421.95271108428847 880.8883474817262 421.95271108428847Q885.6309394802713 421.95271108428847 887.9401596680445 420.51255225750515L887.9401596680445 420.51255225750515L889.0078636258321 421.7788988120906Q886.3261885690631 423.9143067276658 880.4414016389312 423.9143067276658L880.4414016389312 423.9143067276658Q870.7824053696431 423.9143067276658 867.9269180406761 418.8985811585238Q865.0714307117091 413.9076859139817 865.0714307117091 402.11328172911817ZM870.0623259562515 306.09441650202973L870.0623259562515 306.09441650202973Q870.0623259562515 307.70838760101105 868.9946219984638 308.94990383099673Q867.9269180406761 310.21625038558204 866.1391346694968 310.21625038558204Q864.3513512983175 310.21625038558204 863.2836473405299 308.94990383099673Q862.1911130581425 307.70838760101105 862.1911130581425 306.09441650202973L862.1911130581425 306.09441650202973Q862.1911130581425 302.1712252152752 866.1391346694968 302.1712252152752Q870.0623259562515 302.1712252152752 870.0623259562515 306.09441650202973ZM906.1904482488333 359.72791763740884L906.1904482488333 359.72791763740884Q906.1904482488333 364.19737606535716 912.7953145923568 368.8406467655034Q919.4001809358803 373.50874779024934 927.370715132388 376.8111809620111Q935.316419004296 380.1136141337729 941.9461156724194 385.030018404516Q948.5509820159429 389.9464226752591 948.5509820159429 395.13596051659897L948.5509820159429 395.13596051659897Q948.5509820159429 403.35479795910385 941.3998485312256 411.2260108572127Q934.2487150465083 419.0972237553216 924.9621736462159 423.9143067276658L924.9621736462159 423.9143067276658Q911.5537983623711 423.9143067276658 899.2131270363141 416.4155486985526L899.2131270363141 416.4155486985526L900.2808309941016 414.80157759957126Q913.3415817335505 421.95271108428847 924.5897187772202 421.95271108428847L924.5897187772202 421.95271108428847Q933.1810110887209 417.48325265634026 939.7113864584451 410.15830689942504Q946.2169315035699 402.8085308179102 946.2169315035699 395.13596051659897L946.2169315035699 395.13596051659897Q946.2169315035699 390.66650208865076 939.6120651600463 386.0232313885044Q933.0071988165228 381.35513036375846 925.036664620015 378.0526971919967Q917.090960748107 374.7502640202349 910.4612640799837 369.8338597494919Q903.8563977364603 364.9174554787488 903.8563977364603 358.75953497802004Q903.8563977364603 352.57678415269163 910.5605853783826 345.3511596941753Q917.264773020305 338.1007049110592 924.7635310494181 334.52513816870066L924.7635310494181 334.52513816870066Q937.476657244471 334.52513816870066 948.3771697437448 340.7823799678282L948.3771697437448 340.7823799678282L947.3094657859572 342.39635106680953Q936.5827655588814 336.4867338120779 925.3097981906119 336.4867338120779L925.3097981906119 336.4867338120779Q918.1586647058947 340.06230055443655 912.1745564773639 346.76648819635886Q906.1904482488333 353.4706758382813 906.1904482488333 359.72791763740884ZM975.1939203114343 359.72791763740884L975.1939203114343 359.72791763740884Q975.1939203114343 364.19737606535716 981.7987866549579 368.8406467655034Q988.4284833230813 373.50874779024934 996.3741871949892 376.8111809620111Q1004.3198910668972 380.1136141337729 1010.9495877350205 385.030018404516Q1017.554454078544 389.9464226752591 1017.554454078544 395.13596051659897L1017.554454078544 395.13596051659897Q1017.554454078544 403.35479795910385 1010.4033205938268 411.2260108572127Q1003.2521871091096 419.0972237553216 993.9656457088171 423.9143067276658L993.9656457088171 423.9143067276658Q980.5572704249723 423.9143067276658 968.2165990989151 416.4155486985526L968.2165990989151 416.4155486985526L969.2843030567028 414.80157759957126Q982.3450537961517 421.95271108428847 993.5931908398213 421.95271108428847L993.5931908398213 421.95271108428847Q1002.184483151322 417.48325265634026 1008.7148585210464 410.15830689942504Q1015.2452338907708 402.8085308179102 1015.2452338907708 395.13596051659897L1015.2452338907708 395.13596051659897Q1015.2452338907708 390.66650208865076 1008.6155372226476 386.0232313885044Q1002.0106708791241 381.35513036375846 994.0401366826162 378.0526971919967Q986.0944328107082 374.7502640202349 979.4895664671847 369.8338597494919Q972.8598697990615 364.9174554787488 972.8598697990615 358.75953497802004Q972.8598697990615 352.57678415269163 979.5640574409838 345.3511596941753Q986.2682450829062 338.1007049110592 993.7918334366191 334.52513816870066L993.7918334366191 334.52513816870066Q1006.4801293070722 334.52513816870066 1017.380641806346 340.7823799678282L1017.380641806346 340.7823799678282L1016.3129378485585 342.39635106680953Q1005.5862376214826 336.4867338120779 994.3132702532132 336.4867338120779L994.3132702532132 336.4867338120779Q987.1621367684959 340.06230055443655 981.1780285399651 346.76648819635886Q975.1939203114343 353.4706758382813 975.1939203114343 359.72791763740884ZM1096.763189551627 346.4933546257621L1096.763189551627 346.4933546257621L1096.763189551627 397.64382330116996Q1096.763189551627 421.4064439430948 1112.1331604788493 421.4064439430948L1112.1331604788493 421.4064439430948Q1116.7764311789952 421.4064439430948 1119.1104816913685 419.99111544091124L1119.1104816913685 419.99111544091124L1120.1781856491561 421.2326316708968Q1117.496510592387 423.36803958647215 1111.5868933376555 423.36803958647215L1111.5868933376555 423.36803958647215Q1094.429139039254 423.36803958647215 1094.429139039254 397.64382330116996L1094.429139039254 397.64382330116996L1094.429139039254 393.69580168981565Q1088.3457095123244 403.9010651002975 1078.4384099970393 412.1199025428024Q1068.5062801571544 420.33873998530726 1059.7411755734556 423.9143067276658L1059.7411755734556 423.9143067276658Q1050.2808219009653 418.8985811585238 1045.637551200819 408.5443358004437Q1040.9694501760728 398.16526011776386 1040.9694501760728 384.4092602895231Q1040.9694501760728 370.6284301366827 1047.326013273599 356.87243030844195Q1053.6825763711258 343.1164304802012 1065.476980555989 334.52513816870066L1065.476980555989 334.52513816870066Q1081.393218624405 334.52513816870066 1094.6029513114522 342.02389619781377L1094.6029513114522 342.02389619781377Q1095.4968429970418 333.08497934191735 1100.5125685661837 326.8277375427897L1100.5125685661837 326.8277375427897L1102.1265396651652 327.72162922837936Q1096.763189551627 336.3129215398799 1096.763189551627 346.4933546257621ZM1065.998417372583 336.4867338120779Q1055.0979048733093 345.0780261235784 1049.2876089169768 358.1139465384275Q1043.4773129606438 371.17469727787636 1043.4773129606438 384.13612671892633Q1043.4773129606438 397.0975561599763 1047.5991468441962 407.0296859998613Q1051.6961504031487 416.9369855151466 1060.1136304424513 421.4064439430948L1060.1136304424513 421.4064439430948Q1068.3324678849563 418.2033320697319 1078.7860345414351 409.1650939154365Q1089.239601197914 400.1268557611412 1094.429139039254 390.120234947457L1094.429139039254 390.120234947457L1094.429139039254 344.18413443798886Q1081.1945760276071 336.4867338120779 1065.998417372583 336.4867338120779L1065.998417372583 336.4867338120779Z " fill="#2b3252" transform="matrix(0.7811257401241882,0,0,0.7811257401241882,0,27.454035714297092)"/></g></svg>